<svg width="83" height="83" viewBox="0 0 83 83" fill="none" xmlns="http://www.w3.org/2000/svg">
<path d="M26.0459 26.0327H47.4749C48.6763 26.0379 48.6893 27.8752 47.4749 27.8804H26.0459C24.8445 27.8751 24.8315 26.0379 26.0459 26.0327ZM26.0459 36.0864H36.7614C37.9732 36.0812 37.9653 34.244 36.7614 34.2388H26.0459C24.8341 34.244 24.8393 36.0838 26.0459 36.0864ZM38.7061 38.3432H26.0459C24.8341 38.3484 24.8419 40.1856 26.0459 40.1909H38.7061C39.9178 40.1856 39.91 38.3484 38.7061 38.3432ZM26.0459 42.4476C24.8367 42.4528 24.8393 44.2901 26.0459 44.2953H34.5752C35.7844 44.2901 35.7817 42.4528 34.5752 42.4476H26.0459ZM47.4749 30.137H26.0459C24.8315 30.1422 24.8445 31.982 26.0459 31.9846H47.4749C48.6867 31.9794 48.6763 30.1396 47.4749 30.137ZM13.0134 34.0929V28.1591C13.016 26.9916 13.9698 26.03 15.1425 26.03H21.0763C21.6627 26.03 22.1969 26.2697 22.58 26.6554C22.9656 27.0411 23.2054 27.5727 23.2054 28.1591V34.0929C23.2054 35.2656 22.249 36.222 21.0763 36.222H15.1425C13.9698 36.2246 13.0134 35.2604 13.0134 34.0929ZM14.861 34.0929C14.8584 34.2493 14.9887 34.3718 15.1425 34.3744H21.0763C21.23 34.3744 21.3577 34.2467 21.3577 34.0929V28.1591C21.3577 28.0053 21.23 27.8776 21.0763 27.8776H15.1425C15.0669 27.8776 14.9965 27.9089 14.9444 27.961H14.9392C14.8897 28.0105 14.861 28.0809 14.861 28.1591L14.861 34.0929ZM15.8669 16.4999H28.9935C31.4639 16.4217 32.8008 19.7001 31.0079 21.3627C30.4867 21.8813 29.7752 22.2044 28.9935 22.2044H15.8669C12.1117 22.1054 12.1039 16.6016 15.8669 16.4999ZM15.8669 20.3568H28.9935C30.3042 20.3515 30.3095 18.3527 28.9935 18.3475H15.8669C14.5587 18.358 14.5509 20.3437 15.8669 20.3568ZM52.8795 58.0605C41.218 57.7009 41.22 40.7724 52.8795 40.4128C64.541 40.7724 64.539 57.7009 52.8795 58.0605ZM57.81 44.3035C51.092 37.984 41.6267 47.4542 47.9465 54.1671C54.6645 60.4893 64.1298 51.0164 57.81 44.3035ZM67.9265 54.2452C67.4652 55.9443 64.927 56.2596 63.8924 57.2942C63.22 58.5737 63.7048 61.0911 62.248 62.0319C61.8415 62.3655 61.3489 62.4749 60.8226 62.4879V72.964C60.8434 73.6728 59.9939 74.1366 59.4101 73.7484L52.8821 70.0114L46.3254 73.764C45.7338 74.1236 44.926 73.6493 44.9442 72.9613V66.72H12.1793C10.8189 66.72 9.59153 66.1623 8.68202 65.2658C7.78553 64.3693 7.22787 63.1315 7.22787 61.7686L7.22266 12.7916C7.22005 10.0683 9.45342 7.84277 12.1715 7.84277H41.0223C41.0432 7.84277 41.0614 7.8532 41.0823 7.8532C41.1735 7.8558 41.2621 7.87405 41.3481 7.90532C41.3585 7.91053 41.3689 7.91053 41.3794 7.91574C41.4862 7.96004 41.5878 8.01737 41.6764 8.1138L53.5314 19.9688C53.62 20.0522 53.6774 20.1486 53.7217 20.2502C53.7295 20.2659 53.7321 20.2815 53.7373 20.2971C53.766 20.3805 53.7842 20.4639 53.7894 20.5499C53.792 20.576 53.8051 20.5968 53.8051 20.6203V33.5594C55.1132 34.091 56.0853 35.7249 57.1902 36.2878C58.6287 36.5614 60.9012 35.3314 62.2458 36.4389C63.7 37.3823 63.2231 39.8945 63.8902 41.1767C64.1247 41.4946 64.7423 41.7839 65.3652 42.0732C68.1275 43.1364 68.7477 44.932 67.192 47.4806C66.861 48.1217 66.5248 48.7706 66.5248 49.2344C66.6864 50.759 68.5753 52.5773 67.9265 54.2452ZM41.9496 16.5934C41.9496 17.4456 42.2988 18.2222 42.8617 18.7824C43.4194 19.3506 44.1986 19.692 45.0507 19.6946H50.6484L41.9496 10.9985V16.5934ZM44.9387 62.4876C44.4123 62.4746 43.9172 62.3651 43.5132 62.0316C42.0591 61.0908 42.536 58.576 41.8662 57.2938C41.6317 56.9759 41.0141 56.6866 40.3912 56.4C37.6289 55.3367 37.0087 53.5386 38.5618 50.99C39.4062 49.5827 39.401 48.8948 38.5618 47.4823C37.0165 44.9467 37.6106 43.1381 40.3886 42.0748C41.0115 41.7856 41.6291 41.4989 41.8636 41.1784C42.5359 39.8988 42.0512 37.3814 43.5106 36.4406C44.8553 35.3357 47.1252 36.5579 48.5662 36.2895C49.6738 35.7318 50.6458 34.0926 51.9514 33.561L51.954 21.5446H45.0505C42.3351 21.542 40.0991 19.3191 40.1017 16.5958V9.68964H12.1735C11.3187 9.68964 10.5447 10.0388 9.98447 10.5991V10.6018C9.42158 11.1646 9.07237 11.9386 9.07237 12.7908V61.7704C9.07497 63.4747 10.4665 64.8741 12.1735 64.8715H44.9384L44.9387 62.4876ZM58.9719 62.2922C58.3256 62.1827 57.7028 62.0863 57.1894 62.1827C55.8369 62.8655 54.6928 65.1926 52.8791 65.0936C51.0679 65.19 49.9187 62.8681 48.5688 62.1827C48.0554 62.0837 47.4326 62.1801 46.7863 62.2922V71.3712C48.6522 70.3027 50.5363 69.1665 52.4178 68.1476C52.694 67.9912 53.0406 67.9782 53.3351 68.1476L58.9693 71.3738L58.9719 62.2922ZM64.6764 49.2363C64.5513 47.8343 66.2686 46.0102 66.1774 44.8036C66.0524 44.4257 65.3175 44.0843 64.5904 43.7482C63.7513 43.3573 62.9148 42.9716 62.4014 42.2679C61.8802 41.5565 61.7655 40.6366 61.6535 39.7167C61.4502 37.7231 61.26 37.5798 59.2872 37.9837C57.3171 38.5153 55.8056 38.028 54.5183 36.4435C53.0876 34.8721 52.6759 34.8591 51.2399 36.4435C49.9499 38.0332 48.4359 38.5127 46.471 37.9837C44.5087 37.5875 44.3054 37.7126 44.1047 39.7193C43.99 40.6392 43.8754 41.5591 43.3568 42.2705C42.8408 42.9716 42.0069 43.3598 41.1678 43.7508C40.4407 44.0869 39.7084 44.4283 39.5833 44.8062C39.453 45.1893 39.8335 45.9085 40.2062 46.6356C40.6414 47.4773 41.0844 48.3269 41.0844 49.2363C41.087 50.1485 40.6362 51.0006 40.2062 51.8423C39.2263 53.6404 39.2785 53.9036 41.1678 54.7245C42.0069 55.1154 42.8434 55.5011 43.3568 56.2048C43.878 56.9162 43.9926 57.8361 44.1047 58.756C44.2011 59.5378 44.2976 60.3223 44.6051 60.5463C45.6918 60.9711 47.8964 59.8922 49.1473 60.4369C50.5129 60.7652 51.6595 63.0116 52.8791 63.2461C53.3482 63.2461 53.9371 62.6311 54.5183 62.0291C55.8056 60.4395 57.3223 59.9626 59.2872 60.489C60.0664 60.6297 60.843 60.7704 61.1531 60.5437C61.8776 59.6394 61.5049 57.2185 62.4014 56.2021C63.0998 55.0425 65.5547 54.6542 66.1775 53.6665C66.2661 52.4599 64.5539 50.6383 64.6764 49.2363ZM35.3458 46.5522H26.0453C24.8335 46.5574 24.8387 48.3946 26.0453 48.3998H35.3458C36.5576 48.3946 36.5524 46.5574 35.3458 46.5522ZM13.9375 52.5017H34.7047C35.9191 52.4965 35.9061 50.6593 34.7047 50.6541H13.9375C12.7231 50.6593 12.7361 52.4991 13.9375 52.5017ZM34.9602 54.7585H13.9375C12.7231 54.7637 12.7361 56.6009 13.9375 56.6061H34.9602C36.1746 56.6009 36.1616 54.7637 34.9602 54.7585ZM13.0129 46.404V40.4701C13.0129 39.2974 13.9693 38.341 15.142 38.341H21.0758C21.6595 38.341 22.1938 38.5808 22.5794 38.9691C22.9651 39.3574 23.2049 39.889 23.2049 40.4701V46.404C23.2075 47.5715 22.2407 48.5357 21.0758 48.5331H15.142C13.9693 48.5331 13.0129 47.5793 13.0129 46.404ZM14.8605 46.404C14.8605 46.5577 14.9882 46.6854 15.1419 46.6854H21.0758C21.2347 46.6854 21.3546 46.5629 21.3572 46.404V40.4701C21.3572 40.3112 21.2347 40.1913 21.0758 40.1887H15.1419C15.0664 40.1887 14.996 40.22 14.9439 40.2721C14.8918 40.3242 14.8605 40.3946 14.8605 40.4701V46.404Z" fill="#E0905A"/>
</svg>
