<svg width="83" height="83" viewBox="0 0 83 83" fill="none" xmlns="http://www.w3.org/2000/svg">
<path d="M37.1249 34.7879C40.8161 34.7879 44.1402 32.5653 45.5528 29.1571C46.9625 25.749 46.1806 21.8249 43.5712 19.2182C40.9619 16.6117 37.038 15.8325 33.6302 17.2451C30.2248 18.6605 28.0051 21.9874 28.0079 25.6758C28.0135 30.7095 32.094 34.785 37.1249 34.7879ZM37.1249 18.7086C39.9445 18.7086 42.4838 20.4071 43.5629 23.0108C44.642 25.6146 44.045 28.6108 42.0522 30.6035C40.0595 32.5962 37.0633 33.1905 34.4595 32.1142C31.8558 31.0351 30.1601 28.4958 30.1601 25.6762C30.1629 21.8308 33.2824 18.717 37.1249 18.717V18.7086ZM67.6634 40.9599C67.6074 40.6572 67.4196 40.3965 67.1533 40.2424C66.8842 40.077 66.5563 40.0406 66.2564 40.1415L49.0363 46.0245L46.5166 44.4465C50.5358 38.0899 54.496 30.6202 54.496 26.0073C54.5913 21.338 52.8031 16.8283 49.5351 13.4905C46.2643 10.1552 41.7911 8.27734 37.1215 8.27734C32.4521 8.27734 27.9791 10.1552 24.708 13.4905C21.4399 16.8285 19.6518 21.3385 19.7471 26.0073C19.7471 28.684 21.0756 32.2995 22.9674 36.117L8.2026 42.4316C7.85506 42.5718 7.61122 42.8857 7.55797 43.2556L3.49674 70.2209C3.43788 70.6021 3.59203 70.9861 3.89753 71.2243C4.19743 71.4681 4.60943 71.527 4.9654 71.3756L23.1133 63.92L48.226 74.3239H48.6352C48.7501 74.3239 48.8622 74.3042 48.9715 74.2678L70.9286 66.3752C71.4219 66.2071 71.7246 65.7054 71.6461 65.1897L67.6634 40.9599ZM47.8172 47.7762L47.5509 71.7344L24.2743 62.0481L26.5193 42.5047L26.5221 42.5019C29.5295 47.3983 32.7835 52.138 36.273 56.7035C36.4748 56.9641 36.7888 57.1183 37.1223 57.1183C37.4558 57.1183 37.7697 56.9641 37.9715 56.7035C38.2798 56.3083 41.702 51.8603 45.3539 46.263L47.8172 47.7762ZM37.1249 10.7823C41.1609 10.7879 45.0318 12.3939 47.8818 15.2471C50.735 18.1032 52.3409 21.971 52.3438 26.0069C52.3438 33.3835 40.449 49.8137 37.1248 54.2615C33.3887 49.2838 29.9411 44.0988 26.7941 38.729C26.7745 38.6869 26.7493 38.6449 26.7213 38.6056C26.2756 37.8237 25.8524 37.0417 25.4433 36.2737H25.4461C25.4124 36.2037 25.3732 36.1364 25.3311 36.0747C23.3299 32.2293 21.909 28.5912 21.909 26.0297C21.9062 21.9881 23.5066 18.1149 26.3625 15.2556C29.2158 12.3968 33.0862 10.7879 37.1249 10.7823ZM9.59639 44.1743L23.9465 38.0391C24.1903 38.4903 24.4342 38.9443 24.664 39.4012L22.1163 61.9746L5.90783 68.662L9.59639 44.1743ZM49.7035 71.7703L49.9614 47.919L65.7465 42.5377L69.334 64.6656L49.7035 71.7703Z" fill="#E0905A"/>
</svg>
