<svg width="83" height="83" viewBox="0 0 83 83" fill="none" xmlns="http://www.w3.org/2000/svg">
<path d="M70.1228 41.8941H5.82769C5.34325 41.8941 4.95342 42.2839 4.95342 42.7684V73.4281C4.95342 73.9125 5.34326 74.3024 5.82769 74.3024H70.1257C70.6102 74.3024 71 73.9125 71 73.4281V42.7684C71 42.2839 70.6102 41.8941 70.1257 41.8941H70.1228ZM53.6434 43.6341H69.2598V50.8977H53.6434V43.6341ZM6.69874 43.6341H22.3152V50.8977H6.69874V43.6341ZM6.69874 72.5539V52.6461H22.3152V72.5539H6.69874ZM51.8947 72.5539H24.055V43.6341H51.8969V72.5539H51.8947ZM53.6433 72.5539V52.6461H69.2597V72.5539H53.6433ZM47.2796 54.9569H28.6707C28.1863 54.9569 27.7964 55.3467 27.7964 55.8312V67.9392C27.7964 68.4236 28.1863 68.8135 28.6707 68.8135H47.2796C47.7641 68.8135 48.1539 68.4236 48.1539 67.9392V55.8312C48.1539 55.3467 47.7641 54.9569 47.2796 54.9569ZM46.4054 67.0649H29.5422V56.6968H46.4054V67.0649ZM43.8026 48.2579C43.8026 47.7734 44.1924 47.3836 44.6769 47.3836H45.9467C46.4312 47.3836 46.821 47.7734 46.821 48.2579C46.821 48.7423 46.4312 49.1321 45.9467 49.1321H44.6769C44.1924 49.1321 43.8026 48.7423 43.8026 48.2579ZM17.7432 59.271V61.4066C17.7432 61.891 17.3533 62.2809 16.8689 62.2809C16.3845 62.2809 15.9946 61.891 15.9946 61.4066V59.271C15.9946 58.7866 16.3845 58.3967 16.8689 58.3967C17.3533 58.3967 17.7432 58.7866 17.7432 59.271ZM59.9525 59.271V61.4066C59.9525 61.891 59.5627 62.2809 59.0782 62.2809C58.5938 62.2809 58.2039 61.891 58.2039 61.4066V59.271C58.2039 58.7866 58.5938 58.3967 59.0782 58.3967C59.5627 58.3967 59.9525 58.7866 59.9525 59.271ZM29.0748 48.2579C29.0748 47.7734 29.4647 47.3836 29.9491 47.3836H31.219C31.7034 47.3836 32.0932 47.7734 32.0932 48.2579C32.0932 48.7423 31.7034 49.1321 31.219 49.1321H29.9491C29.4646 49.1321 29.0748 48.7423 29.0748 48.2579ZM36.4416 48.2579C36.4416 47.7734 36.8315 47.3836 37.3159 47.3836H38.5858C39.0702 47.3836 39.4601 47.7734 39.4601 48.2579C39.4601 48.7423 39.0702 49.1321 38.5858 49.1321H37.3159C36.8315 49.1321 36.4416 48.7423 36.4416 48.2579ZM70.1225 8.25586H5.8274C5.34296 8.25586 4.95312 8.6457 4.95312 9.13013V16.4396C4.95312 16.9241 5.34297 17.3139 5.8274 17.3139H30.2122L22.662 24.4257C22.6333 24.4543 22.6104 24.483 22.5817 24.5145C22.4728 24.655 22.3982 24.8241 22.3896 25.0133V25.0649V30.451H20.8188C20.3344 30.451 19.9446 30.8408 19.9446 31.3252C19.9446 31.8097 20.3344 32.1995 20.8188 32.1995H55.1337C55.6182 32.1995 56.008 31.8097 56.008 31.3252C56.008 30.8408 55.6182 30.451 55.1337 30.451H53.5629V25.0649V25.0133C53.5543 24.8212 53.4826 24.655 53.3709 24.5145C53.3479 24.4858 53.3193 24.4572 53.2906 24.4257L45.7403 17.3139H70.1252C70.6096 17.3139 70.9994 16.9241 70.9994 16.4396L70.9966 9.13013C70.9966 8.64569 70.6069 8.25586 70.1225 8.25586ZM42.6703 10.0015V15.5625H33.2767V10.0015H42.6703ZM6.69844 10.0015H31.5397V15.5625L6.69844 15.5654V10.0015ZM51.8137 30.445H24.1347V25.916H51.8218V30.445H51.8137ZM50.4922 24.1789H25.4536L32.7488 17.3022H43.191L50.4862 24.1789H50.4922ZM69.2501 15.5653H44.4089V10.0043H69.2501V15.5653Z" fill="#E0905A"/>
</svg>
