<svg width="148" height="70" viewBox="0 0 148 70" fill="none" xmlns="http://www.w3.org/2000/svg">
<path d="M74.1304 28.9983V24.5793L90.5634 8.00818H94.9824L82.4159 20.7127L95.8109 37.0077H91.6681L80.0684 22.9222L74.1304 28.9983Z" fill="url(#paint0_linear_497_2691)"/>
<path d="M67.64 37.0076V14.0842H64.4639V37.0076H67.64Z" fill="url(#paint1_linear_497_2691)"/>
<path d="M77.8592 8.00818H51.9668V11.0462H77.8592V8.00818Z" fill="url(#paint2_linear_497_2691)"/>
<path d="M11.9979 52.23V45.9479H12.6928V52.23H11.9979ZM9.72544 46.3986V45.7694H14.9652V46.3986H9.72544ZM18.579 52.23V45.7694H19.2645V52.23H18.579ZM22.814 52.23V45.7694H23.4995V52.23H22.814ZM19.0297 49.2063V48.5772H23.0018V49.2063H19.0297ZM27.1166 52.23L29.7646 45.7694H30.2811L32.901 52.23H32.1592L29.8773 46.5207H30.1496L27.849 52.23H27.1166ZM28.3279 50.5491V49.9387H31.7084V50.5491H28.3279ZM36.447 52.23V45.7694H37.1324V52.23H36.447ZM41.2268 52.23V45.7694H41.9123V52.23H41.2268ZM41.6776 52.23V51.6008H45.2365V52.23H41.6776ZM48.1322 52.23L50.7802 45.7694H51.2967L53.9166 52.23H53.1748L50.8929 46.5207H51.1652L48.8646 52.23H48.1322ZM49.3435 50.5491V49.9387H52.724V50.5491H49.3435ZM57.4625 52.23V45.7694H57.9508L58.148 46.5864V52.23H57.4625ZM61.9323 52.23L57.8475 46.6897L57.9508 45.7694L62.0262 51.3097L61.9323 52.23ZM61.9323 52.23L61.7257 51.4506V45.7694H62.4206V52.23H61.9323ZM66.9291 52.23V51.5914H68.826C69.3331 51.5914 69.7807 51.4819 70.1688 51.2628C70.5569 51.0374 70.8605 50.7307 71.0796 50.3425C71.2988 49.9481 71.4083 49.4974 71.4083 48.9903C71.4083 48.4832 71.2988 48.0356 71.0796 47.6475C70.8605 47.2594 70.5569 46.9558 70.1688 46.7367C69.7807 46.5113 69.3331 46.3986 68.826 46.3986H66.9479V45.7694H68.8448C69.3143 45.7694 69.7462 45.8508 70.1406 46.0136C70.5413 46.1701 70.8887 46.3955 71.1829 46.6897C71.4834 46.9777 71.7151 47.3188 71.8778 47.7132C72.0406 48.1014 72.122 48.5302 72.122 48.9997C72.122 49.4567 72.0406 49.8824 71.8778 50.2768C71.7151 50.6712 71.4866 51.0155 71.1923 51.3097C70.8981 51.5977 70.5507 51.8231 70.15 51.9858C69.7556 52.1486 69.3268 52.23 68.8635 52.23H66.9291ZM66.5066 52.23V45.7694H67.1921V52.23H66.5066Z" fill="#835119"/>
<path d="M79.7118 52.23L77.0261 48.7743L79.6272 45.6004H81.449L78.5192 49.0467V48.4457L81.5429 52.23H79.7118ZM75.7021 52.23V45.6004H77.1764V52.23H75.7021ZM84.5994 52.23V45.6004H86.0737V52.23H84.5994ZM91.4165 52.23V45.6943H92.8908V52.23H91.4165ZM89.3412 46.8869V45.6004H94.966V46.8869H89.3412ZM101.028 52.3333C100.533 52.3333 100.073 52.2488 99.6477 52.0797C99.2282 51.9044 98.8589 51.6603 98.5396 51.3473C98.2266 51.0343 97.9825 50.6712 97.8072 50.258C97.6319 49.8386 97.5442 49.3878 97.5442 48.9058C97.5442 48.4238 97.6319 47.9762 97.8072 47.563C97.9825 47.1436 98.2266 46.7805 98.5396 46.4737C98.8526 46.167 99.2189 45.9291 99.6383 45.7601C100.064 45.5848 100.524 45.4971 101.019 45.4971C101.545 45.4971 102.011 45.5816 102.418 45.7507C102.831 45.9197 103.191 46.1513 103.498 46.4456L102.512 47.4409C102.336 47.2531 102.124 47.106 101.873 46.9996C101.629 46.8932 101.344 46.8399 101.019 46.8399C100.731 46.8399 100.465 46.89 100.22 46.9902C99.9826 47.0841 99.776 47.2218 99.6007 47.4034C99.4317 47.5849 99.2971 47.804 99.1969 48.0607C99.103 48.3174 99.0561 48.5991 99.0561 48.9058C99.0561 49.2188 99.103 49.5037 99.1969 49.7603C99.2971 50.017 99.4317 50.2361 99.6007 50.4177C99.776 50.5992 99.9826 50.7401 100.22 50.8402C100.465 50.9404 100.731 50.9905 101.019 50.9905C101.357 50.9905 101.651 50.9372 101.901 50.8308C102.152 50.7244 102.368 50.5773 102.549 50.3895L103.545 51.3849C103.225 51.6791 102.859 51.9107 102.446 52.0797C102.039 52.2488 101.566 52.3333 101.028 52.3333ZM106.798 52.23V45.6004H108.272V52.23H106.798ZM110.902 52.23V45.6004H112.385V52.23H110.902ZM107.681 49.4598V48.1828H111.39V49.4598H107.681ZM116.099 52.23V45.6004H117.573V52.23H116.099ZM117.226 52.23V50.9529H120.86V52.23H117.226ZM117.226 49.4598V48.2297H120.531V49.4598H117.226ZM117.226 46.8681V45.6004H120.813V46.8681H117.226ZM124.317 52.23V45.6004H125.35L125.792 46.9245V52.23H124.317ZM128.891 52.23L124.984 47.2249L125.35 45.6004L129.257 50.6055L128.891 52.23ZM128.891 52.23L128.496 50.9059V45.6004H129.97V52.23H128.891ZM135.554 52.3333C135.009 52.3333 134.54 52.2456 134.145 52.0703C133.757 51.8888 133.4 51.6165 133.075 51.2534L134.033 50.305C134.246 50.5491 134.48 50.7401 134.737 50.8778C135 51.0092 135.304 51.075 135.648 51.075C135.961 51.075 136.202 51.0186 136.371 50.9059C136.546 50.7933 136.634 50.6368 136.634 50.4364C136.634 50.2549 136.578 50.1078 136.465 49.9951C136.352 49.8824 136.202 49.7854 136.014 49.704C135.833 49.6226 135.629 49.5444 135.404 49.4692C135.185 49.3941 134.966 49.3096 134.746 49.2157C134.527 49.1155 134.324 48.9935 134.136 48.8495C133.955 48.6992 133.807 48.5145 133.695 48.2954C133.582 48.0701 133.526 47.7884 133.526 47.4503C133.526 47.0434 133.623 46.6928 133.817 46.3986C134.017 46.1044 134.293 45.8821 134.643 45.7319C134.994 45.5754 135.398 45.4971 135.854 45.4971C136.318 45.4971 136.74 45.5785 137.122 45.7413C137.51 45.904 137.83 46.1263 138.08 46.408L137.122 47.3564C136.922 47.1498 136.718 46.9964 136.512 46.8963C136.311 46.7961 136.083 46.746 135.826 46.746C135.57 46.746 135.366 46.7961 135.216 46.8963C135.066 46.9902 134.991 47.1279 134.991 47.3095C134.991 47.4785 135.047 47.6162 135.16 47.7226C135.272 47.8228 135.419 47.9104 135.601 47.9856C135.789 48.0607 135.992 48.1358 136.211 48.2109C136.437 48.2861 136.659 48.3737 136.878 48.4739C137.097 48.574 137.297 48.7024 137.479 48.8589C137.667 49.0091 137.817 49.2032 137.93 49.4411C138.042 49.6727 138.099 49.9607 138.099 50.305C138.099 50.9372 137.873 51.4349 137.423 51.798C136.972 52.1549 136.349 52.3333 135.554 52.3333Z" fill="#4A2E0E"/>
<path d="M11.0542 61.0223C10.9039 61.0223 10.7638 60.9949 10.6338 60.94C10.5059 60.8852 10.3942 60.808 10.2987 60.7085C10.2033 60.609 10.1291 60.4942 10.0763 60.3643C10.0256 60.2322 10.0002 60.0911 10.0002 59.9408C10.0002 59.7905 10.0256 59.6504 10.0763 59.5204C10.1291 59.3884 10.2022 59.2736 10.2957 59.1762C10.3911 59.0787 10.5028 59.0025 10.6308 58.9477C10.7587 58.8928 10.8968 58.8654 11.0451 58.8654C11.2055 58.8654 11.3487 58.8939 11.4746 58.9507C11.6026 59.0076 11.7143 59.0858 11.8097 59.1853L11.6574 59.3376C11.5843 59.2564 11.496 59.1934 11.3924 59.1487C11.2888 59.102 11.173 59.0787 11.0451 59.0787C10.9273 59.0787 10.8186 59.1 10.7191 59.1427C10.6216 59.1853 10.5353 59.2462 10.4602 59.3254C10.3871 59.4026 10.3302 59.494 10.2896 59.5996C10.251 59.7032 10.2317 59.8169 10.2317 59.9408C10.2317 60.0647 10.252 60.1794 10.2926 60.2851C10.3332 60.3907 10.3901 60.4831 10.4632 60.5623C10.5363 60.6395 10.6227 60.6994 10.7222 60.742C10.8217 60.7847 10.9303 60.806 11.0481 60.806C11.1822 60.806 11.301 60.7826 11.4046 60.7359C11.5102 60.6892 11.5995 60.6252 11.6726 60.544L11.825 60.6994C11.7315 60.7989 11.6198 60.8781 11.4899 60.937C11.3599 60.9939 11.2147 61.0223 11.0542 61.0223ZM13.7727 61.0223C13.6204 61.0223 13.4843 60.9888 13.3645 60.9218C13.2467 60.8527 13.1533 60.7593 13.0842 60.6415C13.0152 60.5217 12.9807 60.3876 12.9807 60.2394V58.8959H13.2061V60.2272C13.2061 60.345 13.2305 60.4475 13.2792 60.5349C13.3279 60.6222 13.395 60.6892 13.4803 60.7359C13.5676 60.7826 13.6651 60.806 13.7727 60.806C13.8804 60.806 13.9758 60.7826 14.0591 60.7359C14.1444 60.6892 14.2114 60.6232 14.2601 60.5379C14.3109 60.4506 14.3363 60.348 14.3363 60.2302V58.8959H14.5587V60.2424C14.5587 60.3907 14.5242 60.5237 14.4551 60.6415C14.3881 60.7593 14.2947 60.8527 14.1748 60.9218C14.0571 60.9888 13.923 61.0223 13.7727 61.0223ZM16.4139 61.0223C16.2514 61.0223 16.1113 60.9918 15.9935 60.9309C15.8757 60.8679 15.7721 60.7806 15.6827 60.6689L15.8381 60.5166C15.9092 60.6161 15.9914 60.6902 16.0849 60.739C16.1803 60.7877 16.293 60.8121 16.423 60.8121C16.557 60.8121 16.6657 60.7816 16.749 60.7207C16.8322 60.6598 16.8739 60.5755 16.8739 60.4678C16.8739 60.3846 16.8546 60.3165 16.816 60.2637C16.7774 60.2089 16.7266 60.1652 16.6637 60.1327C16.6027 60.0982 16.5347 60.0677 16.4596 60.0413C16.3844 60.0149 16.3093 59.9875 16.2341 59.9591C16.161 59.9286 16.093 59.8911 16.03 59.8464C15.9671 59.8017 15.9163 59.7448 15.8777 59.6758C15.8411 59.6067 15.8229 59.5184 15.8229 59.4107C15.8229 59.297 15.8503 59.1995 15.9051 59.1183C15.9599 59.037 16.0351 58.9751 16.1305 58.9324C16.226 58.8878 16.3347 58.8654 16.4565 58.8654C16.5926 58.8654 16.7134 58.8918 16.819 58.9446C16.9267 58.9974 17.016 59.0685 17.0871 59.1579L16.9348 59.3102C16.8698 59.233 16.7987 59.1741 16.7216 59.1335C16.6444 59.0929 16.554 59.0726 16.4504 59.0726C16.3286 59.0726 16.2311 59.101 16.158 59.1579C16.0849 59.2147 16.0483 59.294 16.0483 59.3955C16.0483 59.4747 16.0666 59.5387 16.1031 59.5874C16.1417 59.6362 16.1925 59.6768 16.2554 59.7093C16.3184 59.7418 16.3864 59.7712 16.4596 59.7976C16.5347 59.822 16.6098 59.8494 16.685 59.8799C16.7601 59.9103 16.8282 59.9489 16.8891 59.9956C16.9521 60.0424 17.0028 60.1023 17.0414 60.1754C17.08 60.2465 17.0993 60.3379 17.0993 60.4496C17.0993 60.6303 17.0374 60.7715 16.9135 60.873C16.7916 60.9725 16.6251 61.0223 16.4139 61.0223ZM18.7887 60.9918V58.9538H19.0141V60.9918H18.7887ZM18.0515 59.1V58.8959H19.7514V59.1H18.0515ZM21.6986 61.0223C21.5503 61.0223 21.4122 60.9949 21.2842 60.94C21.1583 60.8832 21.0476 60.806 20.9522 60.7085C20.8567 60.609 20.7816 60.4942 20.7267 60.3643C20.6739 60.2322 20.6475 60.0911 20.6475 59.9408C20.6475 59.7885 20.6739 59.6473 20.7267 59.5174C20.7796 59.3874 20.8537 59.2736 20.9491 59.1762C21.0446 59.0787 21.1553 59.0025 21.2812 58.9477C21.4071 58.8928 21.5442 58.8654 21.6925 58.8654C21.8407 58.8654 21.9778 58.8928 22.1037 58.9477C22.2317 59.0025 22.3434 59.0787 22.4388 59.1762C22.5343 59.2736 22.6084 59.3884 22.6612 59.5204C22.714 59.6504 22.7404 59.7915 22.7404 59.9439C22.7404 60.0941 22.714 60.2353 22.6612 60.3673C22.6084 60.4973 22.5343 60.611 22.4388 60.7085C22.3454 60.806 22.2357 60.8832 22.1098 60.94C21.9839 60.9949 21.8468 61.0223 21.6986 61.0223ZM21.6925 60.806C21.8509 60.806 21.991 60.7684 22.1129 60.6933C22.2367 60.6181 22.3332 60.5156 22.4023 60.3856C22.4734 60.2556 22.5089 60.1073 22.5089 59.9408C22.5089 59.8169 22.4886 59.7032 22.448 59.5996C22.4073 59.494 22.3505 59.4026 22.2774 59.3254C22.2043 59.2462 22.1179 59.1853 22.0184 59.1427C21.9209 59.1 21.8123 59.0787 21.6925 59.0787C21.5361 59.0787 21.3959 59.1162 21.2721 59.1914C21.1502 59.2645 21.0537 59.3661 20.9826 59.496C20.9136 59.626 20.8791 59.7743 20.8791 59.9408C20.8791 60.0647 20.8994 60.1794 20.94 60.2851C20.9806 60.3907 21.0375 60.4831 21.1106 60.5623C21.1837 60.6395 21.27 60.6994 21.3695 60.742C21.4691 60.7847 21.5767 60.806 21.6925 60.806ZM23.9649 60.9918V58.8959H24.1233L25.0281 60.3795H24.9154L25.8202 58.8959H25.9786V60.9918H25.7532V59.2858L25.8049 59.298L25.0494 60.5379H24.891L24.1355 59.298L24.1873 59.2858V60.9918H23.9649Z" fill="#835119"/>
<path d="M30.5594 60.9918L29.414 59.8982L30.5351 58.8959H30.8336L29.6394 59.9591V59.8311L30.8641 60.9918H30.5594ZM29.2312 60.9918V58.8959H29.4536V60.9918H29.2312ZM31.9779 60.9918V58.8959H32.2002V60.9918H31.9779ZM34.1104 60.9918V58.9538H34.3358V60.9918H34.1104ZM33.3732 59.1V58.8959H35.0731V59.1H33.3732ZM37.0263 61.0223C36.8761 61.0223 36.7359 60.9949 36.6059 60.94C36.478 60.8852 36.3663 60.808 36.2708 60.7085C36.1754 60.609 36.1013 60.4942 36.0484 60.3643C35.9977 60.2322 35.9723 60.0911 35.9723 59.9408C35.9723 59.7905 35.9977 59.6504 36.0484 59.5204C36.1013 59.3884 36.1744 59.2736 36.2678 59.1762C36.3632 59.0787 36.4749 59.0025 36.6029 58.9477C36.7308 58.8928 36.8689 58.8654 37.0172 58.8654C37.1777 58.8654 37.3208 58.8939 37.4468 58.9507C37.5747 59.0076 37.6864 59.0858 37.7819 59.1853L37.6295 59.3376C37.5564 59.2564 37.4681 59.1934 37.3645 59.1487C37.2609 59.102 37.1452 59.0787 37.0172 59.0787C36.8994 59.0787 36.7908 59.1 36.6912 59.1427C36.5938 59.1853 36.5074 59.2462 36.4323 59.3254C36.3592 59.4026 36.3023 59.494 36.2617 59.5996C36.2231 59.7032 36.2038 59.8169 36.2038 59.9408C36.2038 60.0647 36.2241 60.1794 36.2647 60.2851C36.3054 60.3907 36.3622 60.4831 36.4353 60.5623C36.5085 60.6395 36.5948 60.6994 36.6943 60.742C36.7938 60.7847 36.9025 60.806 37.0203 60.806C37.1543 60.806 37.2731 60.7826 37.3767 60.7359C37.4823 60.6892 37.5717 60.6252 37.6448 60.544L37.7971 60.6994C37.7037 60.7989 37.592 60.8781 37.462 60.937C37.332 60.9939 37.1868 61.0223 37.0263 61.0223ZM38.9802 60.9918V58.8959H39.2026V60.9918H38.9802ZM40.3541 60.9918V58.8959H40.5765V60.9918H40.3541ZM39.1264 60.0109V59.8068H40.415V60.0109H39.1264ZM41.9053 60.9918V58.8959H42.1277V60.9918H41.9053ZM42.0516 60.9918V60.7877H43.2854V60.9918H42.0516ZM42.0516 60.017V59.819H43.1879V60.017H42.0516ZM42.0516 59.1V58.8959H43.2671V59.1H42.0516ZM44.4913 60.9918V58.8959H44.6497L44.7137 59.1609V60.9918H44.4913ZM45.9414 60.9918L44.6162 59.1944L44.6497 58.8959L45.9719 60.6933L45.9414 60.9918ZM45.9414 60.9918L45.8744 60.739V58.8959H46.0998V60.9918H45.9414ZM47.9626 61.0223C47.8001 61.0223 47.66 60.9918 47.5422 60.9309C47.4244 60.8679 47.3208 60.7806 47.2314 60.6689L47.3868 60.5166C47.4579 60.6161 47.5401 60.6902 47.6336 60.739C47.729 60.7877 47.8417 60.8121 47.9717 60.8121C48.1058 60.8121 48.2144 60.7816 48.2977 60.7207C48.381 60.6598 48.4226 60.5755 48.4226 60.4678C48.4226 60.3846 48.4033 60.3165 48.3647 60.2637C48.3261 60.2089 48.2753 60.1652 48.2124 60.1327C48.1515 60.0982 48.0834 60.0677 48.0083 60.0413C47.9331 60.0149 47.858 59.9875 47.7828 59.9591C47.7097 59.9286 47.6417 59.8911 47.5787 59.8464C47.5158 59.8017 47.465 59.7448 47.4264 59.6758C47.3899 59.6067 47.3716 59.5184 47.3716 59.4107C47.3716 59.297 47.399 59.1995 47.4538 59.1183C47.5087 59.037 47.5838 58.9751 47.6793 58.9324C47.7747 58.8878 47.8834 58.8654 48.0052 58.8654C48.1413 58.8654 48.2621 58.8918 48.3677 58.9446C48.4754 58.9974 48.5648 59.0685 48.6358 59.1579L48.4835 59.3102C48.4185 59.233 48.3474 59.1741 48.2703 59.1335C48.1931 59.0929 48.1027 59.0726 47.9991 59.0726C47.8773 59.0726 47.7798 59.101 47.7067 59.1579C47.6336 59.2147 47.597 59.294 47.597 59.3955C47.597 59.4747 47.6153 59.5387 47.6518 59.5874C47.6904 59.6362 47.7412 59.6768 47.8042 59.7093C47.8671 59.7418 47.9352 59.7712 48.0083 59.7976C48.0834 59.822 48.1586 59.8494 48.2337 59.8799C48.3089 59.9103 48.3769 59.9489 48.4378 59.9956C48.5008 60.0424 48.5515 60.1023 48.5901 60.1754C48.6287 60.2465 48.648 60.3379 48.648 60.4496C48.648 60.6303 48.5861 60.7715 48.4622 60.873C48.3403 60.9725 48.1738 61.0223 47.9626 61.0223Z" fill="#835119"/>
<circle cx="52.9418" cy="59.9919" r="0.468678" fill="#4A2E0E"/>
<path d="M57.4579 60.9918V60.7847H58.0733C58.2378 60.7847 58.383 60.7491 58.5089 60.678C58.6348 60.6049 58.7333 60.5054 58.8044 60.3795C58.8755 60.2515 58.9111 60.1053 58.9111 59.9408C58.9111 59.7763 58.8755 59.6311 58.8044 59.5052C58.7333 59.3793 58.6348 59.2808 58.5089 59.2097C58.383 59.1366 58.2378 59.1 58.0733 59.1H57.464V58.8959H58.0794C58.2317 58.8959 58.3718 58.9223 58.4998 58.9751C58.6298 59.0259 58.7425 59.099 58.8379 59.1944C58.9354 59.2879 59.0106 59.3985 59.0634 59.5265C59.1162 59.6524 59.1426 59.7915 59.1426 59.9439C59.1426 60.0921 59.1162 60.2302 59.0634 60.3582C59.0106 60.4861 58.9364 60.5978 58.841 60.6933C58.7455 60.7867 58.6328 60.8598 58.5028 60.9126C58.3749 60.9654 58.2358 60.9918 58.0855 60.9918H57.4579ZM57.3208 60.9918V58.8959H57.5432V60.9918H57.3208ZM60.365 60.9918V58.8959H60.5874V60.9918H60.365ZM60.5112 60.9918V60.7877H61.745V60.9918H60.5112ZM60.5112 60.017V59.819H61.6475V60.017H60.5112ZM60.5112 59.1V58.8959H61.7267V59.1H60.5112ZM63.4762 61.0223C63.3138 61.0223 63.1736 60.9918 63.0558 60.9309C62.938 60.8679 62.8345 60.7806 62.7451 60.6689L62.9005 60.5166C62.9716 60.6161 63.0538 60.6902 63.1472 60.739C63.2427 60.7877 63.3554 60.8121 63.4854 60.8121C63.6194 60.8121 63.7281 60.7816 63.8113 60.7207C63.8946 60.6598 63.9362 60.5755 63.9362 60.4678C63.9362 60.3846 63.917 60.3165 63.8784 60.2637C63.8398 60.2089 63.789 60.1652 63.726 60.1327C63.6651 60.0982 63.5971 60.0677 63.5219 60.0413C63.4468 60.0149 63.3716 59.9875 63.2965 59.9591C63.2234 59.9286 63.1554 59.8911 63.0924 59.8464C63.0294 59.8017 62.9787 59.7448 62.9401 59.6758C62.9035 59.6067 62.8852 59.5184 62.8852 59.4107C62.8852 59.297 62.9127 59.1995 62.9675 59.1183C63.0223 59.037 63.0975 58.9751 63.1929 58.9324C63.2884 58.8878 63.397 58.8654 63.5189 58.8654C63.655 58.8654 63.7758 58.8918 63.8814 58.9446C63.9891 58.9974 64.0784 59.0685 64.1495 59.1579L63.9972 59.3102C63.9322 59.233 63.8611 59.1741 63.7839 59.1335C63.7068 59.0929 63.6164 59.0726 63.5128 59.0726C63.3909 59.0726 63.2935 59.101 63.2203 59.1579C63.1472 59.2147 63.1107 59.294 63.1107 59.3955C63.1107 59.4747 63.1289 59.5387 63.1655 59.5874C63.2041 59.6362 63.2549 59.6768 63.3178 59.7093C63.3808 59.7418 63.4488 59.7712 63.5219 59.7976C63.5971 59.822 63.6722 59.8494 63.7474 59.8799C63.8225 59.9103 63.8906 59.9489 63.9515 59.9956C64.0144 60.0424 64.0652 60.1023 64.1038 60.1754C64.1424 60.2465 64.1617 60.3379 64.1617 60.4496C64.1617 60.6303 64.0997 60.7715 63.9759 60.873C63.854 60.9725 63.6875 61.0223 63.4762 61.0223ZM65.3763 60.9918V58.8959H65.5987V60.9918H65.3763ZM67.8744 61.0192C67.7262 61.0192 67.5881 60.9918 67.4601 60.937C67.3322 60.8822 67.2205 60.806 67.125 60.7085C67.0296 60.611 66.9554 60.4973 66.9026 60.3673C66.8498 60.2353 66.8234 60.0931 66.8234 59.9408C66.8234 59.7885 66.8498 59.6473 66.9026 59.5174C66.9575 59.3874 67.0326 59.2736 67.1281 59.1762C67.2235 59.0766 67.3362 58.9995 67.4662 58.9446C67.5962 58.8898 67.7374 58.8624 67.8897 58.8624C68.0582 58.8624 68.2126 58.8959 68.3527 58.9629C68.4949 59.0299 68.6117 59.1244 68.7031 59.2462L68.5477 59.4016C68.4746 59.298 68.3812 59.2188 68.2674 59.164C68.1537 59.1071 68.0278 59.0787 67.8897 59.0787C67.7252 59.0787 67.58 59.1162 67.454 59.1914C67.3281 59.2645 67.2296 59.3661 67.1585 59.496C67.0895 59.626 67.055 59.7753 67.055 59.9439C67.055 60.1104 67.0895 60.2587 67.1585 60.3886C67.2296 60.5186 67.3261 60.6212 67.4479 60.6963C67.5718 60.7694 67.712 60.806 67.8684 60.806C68.0247 60.806 68.1598 60.7745 68.2735 60.7116C68.3893 60.6486 68.4776 60.5572 68.5386 60.4374C68.6015 60.3175 68.634 60.1734 68.636 60.0048L68.764 60.0992H67.847V59.8951H68.8676V59.9286C68.8676 60.1642 68.8249 60.3632 68.7396 60.5257C68.6564 60.6882 68.5406 60.8111 68.3923 60.8943C68.2441 60.9776 68.0714 61.0192 67.8744 61.0192ZM70.0753 60.9918V58.8959H70.2337L70.2977 59.1609V60.9918H70.0753ZM71.5254 60.9918L70.2002 59.1944L70.2337 58.8959L71.5558 60.6933L71.5254 60.9918ZM71.5254 60.9918L71.4584 60.739V58.8959H71.6838V60.9918H71.5254Z" fill="#835119"/>
<circle cx="76.06" cy="59.9919" r="0.468678" fill="#4A2E0E"/>
<path d="M81.5058 61.0223C81.3555 61.0223 81.2153 60.9949 81.0854 60.94C80.9574 60.8852 80.8457 60.808 80.7503 60.7085C80.6548 60.609 80.5807 60.4942 80.5279 60.3643C80.4771 60.2322 80.4517 60.0911 80.4517 59.9408C80.4517 59.7905 80.4771 59.6504 80.5279 59.5204C80.5807 59.3884 80.6538 59.2736 80.7472 59.1762C80.8427 59.0787 80.9544 59.0025 81.0823 58.9477C81.2103 58.8928 81.3484 58.8654 81.4966 58.8654C81.6571 58.8654 81.8003 58.8939 81.9262 58.9507C82.0541 59.0076 82.1658 59.0858 82.2613 59.1853L82.109 59.3376C82.0358 59.2564 81.9475 59.1934 81.8439 59.1487C81.7403 59.102 81.6246 59.0787 81.4966 59.0787C81.3788 59.0787 81.2702 59.1 81.1707 59.1427C81.0732 59.1853 80.9869 59.2462 80.9117 59.3254C80.8386 59.4026 80.7817 59.494 80.7411 59.5996C80.7025 59.7032 80.6832 59.8169 80.6832 59.9408C80.6832 60.0647 80.7036 60.1794 80.7442 60.2851C80.7848 60.3907 80.8417 60.4831 80.9148 60.5623C80.9879 60.6395 81.0742 60.6994 81.1737 60.742C81.2732 60.7847 81.3819 60.806 81.4997 60.806C81.6337 60.806 81.7525 60.7826 81.8561 60.7359C81.9617 60.6892 82.0511 60.6252 82.1242 60.544L82.2765 60.6994C82.1831 60.7989 82.0714 60.8781 81.9414 60.937C81.8114 60.9939 81.6662 61.0223 81.5058 61.0223ZM83.2507 60.9918L84.1098 58.8959H84.2773L85.1273 60.9918H84.8866L84.1463 59.1396H84.2347L83.4883 60.9918H83.2507ZM83.6437 60.4465V60.2485H84.7404V60.4465H83.6437ZM86.4208 60.9918V60.7938H87.085C87.2231 60.7938 87.3317 60.7552 87.4109 60.678C87.4901 60.6009 87.5297 60.5044 87.5297 60.3886C87.5297 60.3135 87.5125 60.2455 87.478 60.1845C87.4434 60.1236 87.3937 60.0759 87.3287 60.0413C87.2657 60.0048 87.1906 59.9865 87.1032 59.9865H86.4208V59.7915H87.0697C87.1835 59.7915 87.2728 59.7611 87.3378 59.7001C87.4048 59.6392 87.4383 59.5529 87.4383 59.4412C87.4383 59.3295 87.4028 59.2432 87.3317 59.1823C87.2606 59.1213 87.1652 59.0909 87.0454 59.0909H86.4208V58.8959H87.0515C87.1814 58.8959 87.2921 58.9192 87.3835 58.966C87.4749 59.0127 87.544 59.0756 87.5907 59.1548C87.6374 59.234 87.6607 59.3234 87.6607 59.4229C87.6607 59.5407 87.6303 59.6423 87.5693 59.7276C87.5084 59.8108 87.4191 59.8748 87.3013 59.9195L87.3226 59.8464C87.4587 59.889 87.5643 59.9591 87.6394 60.0566C87.7166 60.1541 87.7552 60.2698 87.7552 60.4039C87.7552 60.5156 87.7278 60.6161 87.6729 60.7055C87.6201 60.7928 87.5419 60.8629 87.4383 60.9157C87.3368 60.9664 87.2139 60.9918 87.0697 60.9918H86.4208ZM86.2777 60.9918V58.8959H86.5001V60.9918H86.2777ZM88.9737 60.9918V58.8959H89.1961V60.9918H88.9737ZM90.5244 60.9918V58.8959H90.6828L90.7468 59.1609V60.9918H90.5244ZM91.9745 60.9918L90.6493 59.1944L90.6828 58.8959L92.005 60.6933L91.9745 60.9918ZM91.9745 60.9918L91.9075 60.739V58.8959H92.1329V60.9918H91.9745ZM93.4585 60.9918V58.8959H93.6809V60.9918H93.4585ZM93.6047 60.9918V60.7877H94.8385V60.9918H93.6047ZM93.6047 60.017V59.819H94.741V60.017H93.6047ZM93.6047 59.1V58.8959H94.8203V59.1H93.6047ZM96.5401 60.9918V58.9538H96.7655V60.9918H96.5401ZM95.8029 59.1V58.8959H97.5028V59.1H95.8029ZM99.1111 61.0223C98.9487 61.0223 98.8085 60.9918 98.6907 60.9309C98.5729 60.8679 98.4694 60.7806 98.38 60.6689L98.5354 60.5166C98.6065 60.6161 98.6887 60.6902 98.7821 60.739C98.8776 60.7877 98.9903 60.8121 99.1203 60.8121C99.2543 60.8121 99.363 60.7816 99.4462 60.7207C99.5295 60.6598 99.5712 60.5755 99.5712 60.4678C99.5712 60.3846 99.5519 60.3165 99.5133 60.2637C99.4747 60.2089 99.4239 60.1652 99.3609 60.1327C99.3 60.0982 99.232 60.0677 99.1568 60.0413C99.0817 60.0149 99.0065 59.9875 98.9314 59.9591C98.8583 59.9286 98.7903 59.8911 98.7273 59.8464C98.6643 59.8017 98.6136 59.7448 98.575 59.6758C98.5384 59.6067 98.5201 59.5184 98.5201 59.4107C98.5201 59.297 98.5476 59.1995 98.6024 59.1183C98.6572 59.037 98.7324 58.9751 98.8278 58.9324C98.9233 58.8878 99.0319 58.8654 99.1538 58.8654C99.2899 58.8654 99.4107 58.8918 99.5163 58.9446C99.624 58.9974 99.7133 59.0685 99.7844 59.1579L99.6321 59.3102C99.5671 59.233 99.496 59.1741 99.4188 59.1335C99.3417 59.0929 99.2513 59.0726 99.1477 59.0726C99.0258 59.0726 98.9284 59.101 98.8552 59.1579C98.7821 59.2147 98.7456 59.294 98.7456 59.3955C98.7456 59.4747 98.7639 59.5387 98.8004 59.5874C98.839 59.6362 98.8898 59.6768 98.9527 59.7093C99.0157 59.7418 99.0837 59.7712 99.1568 59.7976C99.232 59.822 99.3071 59.8494 99.3823 59.8799C99.4574 59.9103 99.5255 59.9489 99.5864 59.9956C99.6493 60.0424 99.7001 60.1023 99.7387 60.1754C99.7773 60.2465 99.7966 60.3379 99.7966 60.4496C99.7966 60.6303 99.7346 60.7715 99.6108 60.873C99.4889 60.9725 99.3224 61.0223 99.1111 61.0223Z" fill="#835119"/>
<circle cx="104.179" cy="59.9919" r="0.468678" fill="#4A2E0E"/>
<path d="M108.933 60.9918V58.8959H109.155V60.9918H108.933ZM110.484 60.9918V58.8959H110.642L110.706 59.1609V60.9918H110.484ZM111.934 60.9918L110.608 59.1944L110.642 58.8959L111.964 60.6933L111.934 60.9918ZM111.934 60.9918L111.867 60.739V58.8959H112.092V60.9918H111.934ZM113.955 61.0223C113.792 61.0223 113.652 60.9918 113.534 60.9309C113.417 60.8679 113.313 60.7806 113.224 60.6689L113.379 60.5166C113.45 60.6161 113.532 60.6902 113.626 60.739C113.721 60.7877 113.834 60.8121 113.964 60.8121C114.098 60.8121 114.207 60.7816 114.29 60.7207C114.373 60.6598 114.415 60.5755 114.415 60.4678C114.415 60.3846 114.395 60.3165 114.357 60.2637C114.318 60.2089 114.268 60.1652 114.205 60.1327C114.144 60.0982 114.076 60.0677 114 60.0413C113.925 60.0149 113.85 59.9875 113.775 59.9591C113.702 59.9286 113.634 59.8911 113.571 59.8464C113.508 59.8017 113.457 59.7448 113.419 59.6758C113.382 59.6067 113.364 59.5184 113.364 59.4107C113.364 59.297 113.391 59.1995 113.446 59.1183C113.501 59.037 113.576 58.9751 113.671 58.9324C113.767 58.8878 113.876 58.8654 113.997 58.8654C114.133 58.8654 114.254 58.8918 114.36 58.9446C114.468 58.9974 114.557 59.0685 114.628 59.1579L114.476 59.3102C114.411 59.233 114.34 59.1741 114.262 59.1335C114.185 59.0929 114.095 59.0726 113.991 59.0726C113.869 59.0726 113.772 59.101 113.699 59.1579C113.626 59.2147 113.589 59.294 113.589 59.3955C113.589 59.4747 113.607 59.5387 113.644 59.5874C113.683 59.6362 113.733 59.6768 113.796 59.7093C113.859 59.7418 113.927 59.7712 114 59.7976C114.076 59.822 114.151 59.8494 114.226 59.8799C114.301 59.9103 114.369 59.9489 114.43 59.9956C114.493 60.0424 114.544 60.1023 114.582 60.1754C114.621 60.2465 114.64 60.3379 114.64 60.4496C114.64 60.6303 114.578 60.7715 114.454 60.873C114.333 60.9725 114.166 61.0223 113.955 61.0223ZM116.33 60.9918V58.9538H116.555V60.9918H116.33ZM115.592 59.1V58.8959H117.292V59.1H115.592ZM117.985 60.9918L118.844 58.8959H119.012L119.862 60.9918H119.621L118.881 59.1396H118.969L118.223 60.9918H117.985ZM118.378 60.4465V60.2485H119.475V60.4465H118.378ZM121.012 60.9918V58.8959H121.234V60.9918H121.012ZM121.158 60.9918V60.7877H122.313V60.9918H121.158ZM123.491 60.9918V58.8959H123.713V60.9918H123.491ZM123.637 60.9918V60.7877H124.792V60.9918H123.637ZM125.731 60.9918L126.59 58.8959H126.758L127.608 60.9918H127.367L126.627 59.1396H126.715L125.969 60.9918H125.731ZM126.124 60.4465V60.2485H127.221V60.4465H126.124ZM129.039 60.9918V58.9538H129.265V60.9918H129.039ZM128.302 59.1V58.8959H130.002V59.1H128.302ZM131.174 60.9918V58.8959H131.397V60.9918H131.174ZM133.67 61.0223C133.521 61.0223 133.383 60.9949 133.255 60.94C133.129 60.8832 133.019 60.806 132.923 60.7085C132.828 60.609 132.753 60.4942 132.698 60.3643C132.645 60.2322 132.619 60.0911 132.619 59.9408C132.619 59.7885 132.645 59.6473 132.698 59.5174C132.751 59.3874 132.825 59.2736 132.92 59.1762C133.016 59.0787 133.126 59.0025 133.252 58.9477C133.378 58.8928 133.515 58.8654 133.663 58.8654C133.812 58.8654 133.949 58.8928 134.075 58.9477C134.203 59.0025 134.314 59.0787 134.41 59.1762C134.505 59.2736 134.579 59.3884 134.632 59.5204C134.685 59.6504 134.711 59.7915 134.711 59.9439C134.711 60.0941 134.685 60.2353 134.632 60.3673C134.579 60.4973 134.505 60.611 134.41 60.7085C134.316 60.806 134.207 60.8832 134.081 60.94C133.955 60.9949 133.818 61.0223 133.67 61.0223ZM133.663 60.806C133.822 60.806 133.962 60.7684 134.084 60.6933C134.208 60.6181 134.304 60.5156 134.373 60.3856C134.444 60.2556 134.48 60.1073 134.48 59.9408C134.48 59.8169 134.46 59.7032 134.419 59.5996C134.378 59.494 134.321 59.4026 134.248 59.3254C134.175 59.2462 134.089 59.1853 133.989 59.1427C133.892 59.1 133.783 59.0787 133.663 59.0787C133.507 59.0787 133.367 59.1162 133.243 59.1914C133.121 59.2645 133.025 59.3661 132.954 59.496C132.885 59.626 132.85 59.7743 132.85 59.9408C132.85 60.0647 132.87 60.1794 132.911 60.2851C132.952 60.3907 133.008 60.4831 133.082 60.5623C133.155 60.6395 133.241 60.6994 133.341 60.742C133.44 60.7847 133.548 60.806 133.663 60.806ZM135.936 60.9918V58.8959H136.094L136.158 59.1609V60.9918H135.936ZM137.386 60.9918L136.061 59.1944L136.094 58.8959L137.416 60.6933L137.386 60.9918ZM137.386 60.9918L137.319 60.739V58.8959H137.544V60.9918H137.386Z" fill="#835119"/>
<defs>
<linearGradient id="paint0_linear_497_2691" x1="74.1191" y1="19.284" x2="109.541" y2="21.3689" gradientUnits="userSpaceOnUse">
<stop stop-color="#87541A"/>
<stop offset="1" stop-color="#211506"/>
</linearGradient>
<linearGradient id="paint1_linear_497_2691" x1="64.4622" y1="22.9975" x2="69.6687" y2="23.0543" gradientUnits="userSpaceOnUse">
<stop stop-color="#87541A"/>
<stop offset="1" stop-color="#211506"/>
</linearGradient>
<linearGradient id="paint2_linear_497_2691" x1="51.9533" y1="9.18946" x2="81.2242" y2="28.8299" gradientUnits="userSpaceOnUse">
<stop stop-color="#87541A"/>
<stop offset="1" stop-color="#211506"/>
</linearGradient>
</defs>
</svg>
