<svg width="20" height="20" viewBox="0 0 20 20" fill="none" xmlns="http://www.w3.org/2000/svg">
<g clip-path="url(#clip0_532_3488)">
<path d="M0 6.875H20V13.125H0V6.875Z" fill="#2B3990"/>
<path d="M3.12277 16.875H16.8728C18.4621 16.875 19.45 15.9672 19.8246 14.6875H0.170898C0.545586 15.9672 1.5334 16.875 3.12277 16.875ZM16.8728 3.125H3.12277C1.5334 3.125 0.545586 4.03281 0.170898 5.3125H19.825C19.45 4.03281 18.4621 3.125 16.8728 3.125Z" fill="#EC1C24"/>
<path d="M20.0001 13.125H5.65531e-05V13.4375C5.65531e-05 13.8791 0.0594316 14.2997 0.173182 14.6875H19.8272C19.9407 14.2997 20.0001 13.8791 20.0001 13.4375V13.125ZM20.0001 6.5625C20.0001 6.12094 19.9407 5.70031 19.8269 5.3125H0.173182C0.0562197 5.71879 -0.00207794 6.13971 5.65531e-05 6.5625V6.875H20.0001V6.5625Z" fill="#E6E7E8"/>
</g>
<defs>
<clipPath id="clip0_532_3488">
<rect width="20" height="20" fill="white"/>
</clipPath>
</defs>
</svg>
